<?xml version="1.0" encoding="UTF-8"?>
<svg version="1.1" xmlns="http://www.w3.org/2000/svg" width="897" height="891">
<path d="M0 0 C-1.6064041 3.36499384 -3.29433215 6.68427349 -5 10 C-5.35416992 10.6914209 -5.70833984 11.3828418 -6.07324219 12.09521484 C-14.6859789 28.7486644 -14.6859789 28.7486644 -21.89453125 35.078125 C-24.16441371 37.0519563 -24.16441371 37.0519563 -26.35546875 39.92578125 C-28.99502441 43.15667414 -32.08637482 45.56778959 -35.5 47.9375 C-36.11238525 48.36933594 -36.72477051 48.80117187 -37.35571289 49.24609375 C-42.24090293 52.62394348 -47.3314376 55.41717825 -52.61328125 58.1328125 C-57.29201183 60.71232025 -61.66925528 63.68074329 -66.06420898 66.71289062 C-68.70057045 68.52213748 -70.94828693 69.98276231 -74 71 C-75.03770955 72.73308422 -75.03770955 72.73308422 -76 75 C-76.57234375 75.99128906 -77.1446875 76.98257813 -77.734375 78.00390625 C-83.4063317 87.92560188 -86.88254615 98.02986883 -90 109 C-88.94425781 108.21238281 -87.88851562 107.42476563 -86.80078125 106.61328125 C-78.42089445 100.42636951 -69.9262941 94.53830512 -61.0625 89.0625 C-59.80530151 88.28483276 -59.80530151 88.28483276 -58.52270508 87.49145508 C-53.34683083 84.33127118 -48.08435137 81.37421751 -42.74829102 78.49389648 C-38.27400246 76.06179453 -33.86115768 73.522624 -29.4375 71 C-21.00318023 66.20536078 -12.49876234 61.5635876 -3.9375 57 C4.46766056 52.5066043 12.78721917 47.89944058 21 43.0625 C21.8650415 42.55525391 22.73008301 42.04800781 23.62133789 41.52539062 C28.76955997 38.46105639 33.68611574 35.16444913 38.57128906 31.69799805 C69.00336731 10.42185167 98.16676744 9.56236758 134 11 C133.70996094 12.92041016 133.70996094 12.92041016 133 15 C130.37649002 15.99449332 127.96131729 16.72653937 125.25 17.375 C119.81506683 18.70108351 114.91415066 20.42658219 109.8515625 22.8359375 C103.38389475 25.90308862 96.81657022 28.36039676 90.02587891 30.61523438 C88.12795661 31.24901269 86.23775398 31.90575456 84.34765625 32.5625 C72.36892844 36.57605513 60.85510944 38.36089002 48.1953125 37.97265625 C39.18015063 38.04980311 33.70441365 39.76428726 26.0625 44.6875 C24.38671875 45.73307292 22.7109375 46.77864583 21.03515625 47.82421875 C20.20306641 48.34983398 19.37097656 48.87544922 18.51367188 49.41699219 C10.98428305 54.15869354 3.36499378 58.45694379 -4.625 62.375 C-5.98818359 63.04982422 -5.98818359 63.04982422 -7.37890625 63.73828125 C-9.58411698 64.82928024 -11.79111828 65.91645831 -14 67 C-13.67 67.33 -13.34 67.66 -13 68 C-10.72368288 67.97012607 -8.44831188 67.86506669 -6.17578125 67.73046875 C-5.47793015 67.68940506 -4.78007904 67.64834137 -4.06108093 67.60603333 C-2.57205557 67.51691344 -1.0831903 67.42508524 0.40551758 67.33081055 C2.63257574 67.19094929 4.86006771 67.06255987 7.08789062 66.93554688 C18.08508736 66.27829155 28.87473446 65.06436578 39.6875 62.875 C54.75759177 60.16898352 65.75963534 64.97633026 79 72 C79 72.66 79 73.32 79 74 C74.93447872 75.35517376 71.00953988 75.44511344 66.75 75.6875 C65.91597656 75.74744141 65.08195312 75.80738281 64.22265625 75.86914062 C55.71744209 76.35648806 50.16085827 74.52227468 43.50390625 69.2421875 C38.23963321 66.63058247 31.12683029 68.08731697 25.4375 68.65625 C24.42236328 68.7561322 24.42236328 68.7561322 23.38671875 68.85803223 C21.257431 69.06837333 19.12872888 69.284084 17 69.5 C15.5430043 69.64488923 14.08597327 69.78942356 12.62890625 69.93359375 C9.08552039 70.28496819 5.54263805 70.6411552 2 71 C10.8907795 77.91433656 19.77244939 84.32758842 30 89.125 C31.12692261 89.65468384 31.12692261 89.65468384 32.27661133 90.19506836 C36.19526381 91.95796714 40.04444338 93.32766044 44.19140625 94.45703125 C48.5835863 95.71970866 51.49007677 97.48968663 54.9375 100.5625 C55.83339844 101.34753906 56.72929687 102.13257813 57.65234375 102.94140625 C58.42707031 103.62074219 59.20179688 104.30007812 60 105 C60.99 105.66 61.98 106.32 63 107 C63 107.99 63 108.98 63 110 C59.9554511 109.77090523 56.9162098 109.51755511 53.875 109.25 C53.0190625 109.188125 52.163125 109.12625 51.28125 109.0625 C43.66844091 108.35977916 39.24273783 105.56382465 33.9375 100.0625 C33.25171875 99.36511719 32.5659375 98.66773438 31.859375 97.94921875 C30.4349701 96.45598756 29.05163846 94.9234815 27.6875 93.375 C24.41347838 90.48167857 20.90966218 88.75778701 17.05078125 86.7421875 C10.83227942 83.1910328 4.85303519 78.75148648 -0.3046875 73.77734375 C-6.37211667 69.77635785 -15.08386355 70.79695805 -22 72 C-27.32290941 73.6790465 -31.97728993 76.59648353 -36.67480469 79.55371094 C-39.19165095 81.11920834 -41.74762283 82.59849469 -44.3203125 84.0703125 C-60.22830585 93.2128854 -76.27880389 102.715319 -90 115 C-90.69609375 115.55558594 -91.3921875 116.11117187 -92.109375 116.68359375 C-94.90885312 120.11353285 -95.7297046 123.83520179 -96.875 128.0625 C-97.39183593 129.87669957 -97.91009957 131.69049293 -98.4296875 133.50390625 C-98.68975586 134.42316895 -98.94982422 135.34243164 -99.21777344 136.28955078 C-100.39976829 140.38521461 -101.69733515 144.44143549 -103 148.5 C-105.04974088 154.94366424 -107.05310247 161.39949085 -109 167.875 C-109.2482251 168.69911377 -109.4964502 169.52322754 -109.75219727 170.37231445 C-111.03987432 174.67948756 -112.28237628 178.99473742 -113.46484375 183.33203125 C-116.55609291 194.61293686 -120.26117245 205.30258752 -125 216 C-121.16206033 213.37378719 -117.36410827 210.70985924 -113.64453125 207.91796875 C-113.01909424 207.4489917 -112.39365723 206.98001465 -111.74926758 206.49682617 C-108.52773797 203.74020398 -106.64544955 200.8705461 -105 197 C-104.44864353 195.74317046 -103.89647765 194.48669587 -103.34375 193.23046875 C-102.43344748 191.15601081 -101.53325074 189.08088204 -100.671875 186.9855957 C-99.1902599 183.43312648 -97.59659192 180.34120398 -95.3984375 177.17578125 C-92.34550117 172.44638367 -91.84262758 167.68286755 -91.125 162.1875 C-88.52547678 146.0329399 -80.41522793 137.12863601 -68 127 C-67.34 127 -66.68 127 -66 127 C-65.93358826 130.33534497 -65.95197426 133.66439438 -66 137 C-66.00386719 137.98484375 -66.00773438 138.9696875 -66.01171875 139.984375 C-66.33875463 148.69029568 -68.7679175 155.05798994 -75.22265625 161.0703125 C-78.22586284 163.46686133 -81.18983832 165.57603569 -84.59765625 167.359375 C-87.54584663 169.37277331 -88.39756419 171.08224833 -89.875 174.3125 C-90.6175 175.89224609 -90.6175 175.89224609 -91.375 177.50390625 C-91.91125 178.65761719 -92.4475 179.81132812 -93 181 C-94.27517405 183.59167319 -95.57495648 186.17073216 -96.875 188.75 C-97.47699982 189.95290624 -98.07860075 191.15601224 -98.6796875 192.359375 C-99.11539063 193.23078125 -99.55109375 194.1021875 -100 195 C-99.67 195.33 -99.34 195.66 -99 196 C-92.31304057 190.83683885 -86.0283479 185.37376811 -79.859375 179.61328125 C-77.87838062 177.80278229 -75.90756267 176.08544406 -73.83203125 174.39453125 C-71.54313504 172.45923004 -69.77884562 170.70360979 -67.9375 168.375 C-54.98467978 153.38592857 -39.16284408 145.15632463 -20 141 C-19.01515625 140.77570313 -18.0303125 140.55140625 -17.015625 140.3203125 C-12.91462018 139.43459252 -9.20865124 138.91139682 -5 139 C-5.58322966 142.69934245 -7.09945963 144.53918833 -9.625 147.25 C-10.71361328 148.43335938 -10.71361328 148.43335938 -11.82421875 149.640625 C-12.54222656 150.41921875 -13.26023437 151.1978125 -14 152 C-15.14975187 153.32995581 -16.2958054 154.66312108 -17.4375 156 C-18.62022347 157.33757214 -19.80796687 158.67071785 -21 160 C-22.01513672 161.15048828 -22.01513672 161.15048828 -23.05078125 162.32421875 C-23.77652344 163.10410156 -24.50226563 163.88398438 -25.25 164.6875 C-25.89453125 165.39261719 -26.5390625 166.09773437 -27.203125 166.82421875 C-35.92427066 173.60868542 -46.20521478 175.31027518 -56.8125 177.0625 C-59.55132092 177.51615014 -62.28589563 177.98884986 -65.01953125 178.47265625 C-66.21682861 178.67125244 -67.41412598 178.86984863 -68.64770508 179.07446289 C-73.57928264 180.43602509 -77.28878869 183.23450895 -81.11328125 186.55078125 C-81.63422363 186.99824707 -82.15516602 187.44571289 -82.69189453 187.90673828 C-83.22669434 188.37063965 -83.76149414 188.83454102 -84.3125 189.3125 C-88.71367815 193.08476015 -93.16454158 196.74268209 -97.76953125 200.265625 C-101.27532593 202.991672 -104.6745045 205.84632395 -108.09375 208.6796875 C-111.99253395 211.7924263 -116.0655196 214.64259465 -120.17578125 217.46875 C-128.10119116 224.57202195 -131.55590698 234.48088628 -135.4375 244.125 C-136.51440746 246.77554945 -137.59723986 249.42362163 -138.68359375 252.0703125 C-139.08147598 253.04221527 -139.08147598 253.04221527 -139.48739624 254.03375244 C-142.420891 261.13286041 -145.69035142 268.0700544 -149 275 C-148.67 275.33 -148.34 275.66 -148 276 C-142.20513744 271.14035367 -136.98308482 265.94566668 -131.875 260.375 C-123.7103333 251.47940124 -117.70643876 246.40977347 -105.875 243.25 C-104.79089844 242.94707031 -103.70679688 242.64414062 -102.58984375 242.33203125 C-98.40597285 241.16840832 -94.21664738 240.03897398 -90 239 C-89.1875 240.6875 -89.1875 240.6875 -89 243 C-90.61398111 244.71773704 -92.29115995 246.37660195 -94 248 C-95.18529297 249.25490234 -95.18529297 249.25490234 -96.39453125 250.53515625 C-104.56282484 259.07293647 -110.12155626 262.11611684 -121.8515625 263.5078125 C-128.31138295 264.51766036 -131.56139272 266.1717971 -136 271 C-137.95040658 272.80160172 -139.90745521 274.59248385 -141.875 276.375 C-142.93827018 277.34942068 -144.00077398 278.32467829 -145.0625 279.30078125 C-146.74425601 280.84611822 -148.42953409 282.3876861 -150.125 283.91796875 C-163.57628096 296.55856983 -169.8384173 317.73722567 -176.671875 334.390625 C-178.00639656 337.63530181 -179.36440117 340.85840211 -180.828125 344.046875 C-203.82175897 394.44706258 -185.34210019 463.81637158 -167 513 C-149.31844914 558.68066583 -123.94497986 598.86137414 -91 635 C-90.15953125 635.94488281 -89.3190625 636.88976562 -88.453125 637.86328125 C-81.71960178 645.39709522 -74.55179272 652.29194608 -67 659 C-66.46568359 659.47904785 -65.93136719 659.9580957 -65.38085938 660.45166016 C-6.91626992 712.67743459 68.16793539 744.49429794 146 752 C147.41140259 752.14139404 147.41140259 752.14139404 148.85131836 752.28564453 C159.03527679 753.19555147 169.22056368 753.24341814 179.4375 753.25 C180.85737717 753.25101212 180.85737717 753.25101212 182.30593872 753.25204468 C275.06175172 753.14765036 369.98620973 717.02910737 436.125 651 C437.41934563 649.66926714 438.71102803 648.33593856 440 647 C442.65182164 644.33055828 445.32246536 641.68228492 448.015625 639.0546875 C454.8371824 632.37050504 461.07949552 625.50744383 467 618 C467.85903857 616.97409302 468.72116566 615.95076637 469.5859375 614.9296875 C496.64962794 582.61794098 517.47593291 543.76940278 531 504 C531.37608398 502.90558594 531.75216797 501.81117188 532.13964844 500.68359375 C541.34479978 473.55424578 547.35288295 445.53664567 550 417 C550.0928125 416.06486572 550.185625 415.12973145 550.28125 414.16625977 C551.19278102 403.97583125 551.24341391 393.78600523 551.25 383.5625 C551.25067474 382.61591522 551.25134949 381.66933044 551.25204468 380.69406128 C551.16370248 302.20077838 525.81269443 223.54341732 478 161 C477.2891626 160.06389893 477.2891626 160.06389893 476.56396484 159.10888672 C461.71558887 139.62785899 445.36166406 121.2338222 427 105 C426.46616699 104.52143555 425.93233398 104.04287109 425.38232422 103.54980469 C410.99762358 90.68041271 395.27607009 79.35383667 379 69 C378.14438477 68.45448486 378.14438477 68.45448486 377.27148438 67.89794922 C333.41566698 40.19627068 284.20063986 22.67340406 233 15 C231.97551758 14.83628906 230.95103516 14.67257813 229.89550781 14.50390625 C204.50625429 10.56152617 178.60970262 11.71048265 153 12 C153 10.02 153 8.04 153 6 C246.17127605 -1.57270168 341.04802143 27.73633926 414 86 C415.39412109 87.10408203 415.39412109 87.10408203 416.81640625 88.23046875 C422.84344405 93.0743896 428.5637231 98.18762084 434.2265625 103.4453125 C436.47077035 105.51251241 438.74185859 107.5203508 441.0625 109.5 C448.98654902 116.38401758 456.20639709 124.01161213 463 132 C463.84691406 132.95777344 464.69382812 133.91554687 465.56640625 134.90234375 C478.76482592 149.8962525 490.5512415 165.98125022 501 183 C501.41024414 183.66499512 501.82048828 184.32999023 502.24316406 185.01513672 C527.74320871 226.6167535 544.21664379 271.79946555 552.75 319.75 C552.94899902 320.86084961 553.14799805 321.97169922 553.35302734 323.11621094 C556.66506233 342.7268696 557.37593384 362.20601178 557.3125 382.0625 C557.31034485 383.27744141 557.3081897 384.49238281 557.30596924 385.74414062 C557.2559014 403.3309754 556.96044926 420.62253224 554 438 C553.69400879 439.83546387 553.69400879 439.83546387 553.38183594 441.70800781 C547.64009706 475.29759813 538.24556017 507.36921596 524.16992188 538.41357422 C523.12279522 540.72852827 522.09759568 543.05168962 521.078125 545.37890625 C506.07143559 579.05568278 483.65562717 610.42858471 458.5234375 637.2890625 C456.24929654 639.73217987 454.06126314 642.22867738 451.875 644.75 C441.94396228 655.80631718 430.69279241 665.84765601 419 675 C417.93796008 675.85311953 416.87680916 676.70734657 415.81640625 677.5625 C364.75597481 718.53301338 304.81588807 744.26906491 240.4375 755.3125 C239.58446289 755.45985596 238.73142578 755.60721191 237.85253906 755.7590332 C218.93850384 758.78322373 200.06008602 759.37358931 180.9375 759.3125 C179.11508789 759.30926727 179.11508789 759.30926727 177.25585938 759.30596924 C159.67185414 759.25590946 142.37360818 758.97135201 125 756 C123.76040527 755.79068848 122.52081055 755.58137695 121.24365234 755.36572266 C32.32479114 740.08674579 -50.64930033 695.54056263 -113 620 C-114.06439532 618.67651294 -115.12956424 617.35364784 -116.1953125 616.03125 C-124.89354424 605.14936176 -132.67011817 593.84263682 -140 582 C-140.4429541 581.28521484 -140.8859082 580.57042969 -141.34228516 579.83398438 C-178.52276558 519.32821601 -196.03107178 451.28329554 -197.24609375 380.57421875 C-197.27115494 379.11607758 -197.27115494 379.11607758 -197.29672241 377.628479 C-197.36219571 373.65806385 -197.4242655 369.6876499 -197.47680664 365.71704102 C-197.62968303 354.59917411 -197.98576046 343.54050293 -198.91015625 332.45703125 C-198.98648788 331.51027023 -199.06281952 330.56350922 -199.14146423 329.58805847 C-199.60544974 324.47383597 -200.44731568 319.89206718 -202 315 C-202.44732306 312.58881959 -202.8613904 310.17133671 -203.25 307.75 C-206.62666552 287.98710218 -210.29479721 267.71356109 -219.19140625 249.5703125 C-220.42554773 245.64729271 -220.25022909 241.83596246 -220.1875 237.75 C-220.18032959 236.87480713 -220.17315918 235.99961426 -220.16577148 235.09790039 C-220.09392297 229.20472587 -219.88990935 223.32186302 -219.5625 217.4375 C-219.52342529 216.73012695 -219.48435059 216.02275391 -219.4440918 215.29394531 C-219.25291016 212.32130844 -218.94724285 209.84172855 -218 207 C-215 208 -215 208 -214.0168457 209.63549805 C-209.09672036 222.07363205 -206.65441871 232.00349681 -208.6484375 245.453125 C-210.25528437 256.72543441 -209.2926971 264.76333982 -205.75537109 275.52832031 C-204.33220578 280.18511594 -203.30875269 284.9371322 -202.25 289.6875 C-202.03980225 290.60829346 -201.82960449 291.52908691 -201.61303711 292.4777832 C-200.52818012 297.30621698 -199.67022715 302.09287266 -199 307 C-198.93530518 306.18249268 -198.87061035 305.36498535 -198.80395508 304.52270508 C-195.90289993 268.79116836 -191.00023194 234.34153896 -174.48828125 202.04296875 C-169.55916341 192.16993091 -167.1004208 180.04423139 -168 169 C-170.37493876 162.12348814 -175.1723707 156.37086091 -179.49023438 150.61914062 C-187.13725952 140.13484566 -189.74840197 131.76382914 -189.25 118.75 C-189.18842175 116.30739597 -189.13099963 113.86468294 -189.078125 111.421875 C-189.05169922 110.30103516 -189.02527344 109.18019531 -188.99804688 108.02539062 C-189.00028359 104.56072515 -189.3373232 101.39370847 -190 98 C-188.02 97.505 -188.02 97.505 -186 97 C-183.59986338 100.29007492 -181.27811116 103.62429781 -179 107 C-178.55269531 107.64453125 -178.10539062 108.2890625 -177.64453125 108.953125 C-172.93190326 116.77914982 -174.42283459 126.34254356 -176.23266602 134.88061523 C-177.77947547 142.7436435 -176.61592979 147.19700204 -172.1875 153.9375 C-169.33572416 158.16360918 -169.33572416 158.16360918 -166 162 C-162.70420946 148.16644511 -160.67286616 135.18718917 -161.125 120.9375 C-161.38015874 109.96997482 -160.48911691 101.95448745 -155.24658203 92.3203125 C-153.73562922 89.50791619 -152.3361252 86.64922215 -150.93359375 83.78125 C-148.40452126 78.62744541 -145.82937687 73.49975387 -143.2175293 68.38745117 C-142.13435434 66.2634552 -141.06291933 64.13418863 -140 62 C-138.515 62.495 -138.515 62.495 -137 63 C-132.41255965 74.60352558 -137.31394332 90.06990754 -141.82714844 101.00390625 C-144.92797395 107.92304496 -148.73289749 114.48350118 -152.73828125 120.9140625 C-154.90910069 124.50297142 -156.23752316 127.41199946 -156.74609375 131.60546875 C-156.85969238 132.49838623 -156.97329102 133.39130371 -157.09033203 134.3112793 C-157.20489746 135.26043213 -157.31946289 136.20958496 -157.4375 137.1875 C-158.33477492 144.22502979 -159.32581559 151.21259381 -160.625 158.1875 C-161.63067777 163.61436493 -162.34471609 168.97926849 -162.75 174.484375 C-163.17107854 178.72147781 -164.09092909 182.84570972 -165 187 C-164.23816406 185.97261719 -163.47632813 184.94523438 -162.69140625 183.88671875 C-146.58582169 162.23787766 -129.18914238 141.83694972 -108 125 C-99.62928809 118.34605362 -96.04368005 113.23882933 -93.1640625 103.0390625 C-89.3204822 89.73436146 -83.21523036 76.51147304 -74.1953125 65.87109375 C-71.13936237 61.874433 -68.67037334 57.58418735 -66.125 53.25 C-55.00557169 34.36687877 -41.96619921 20.56929883 -22.3671875 10.2890625 C-18.04424801 7.93498654 -13.90079842 5.2716079 -9.72265625 2.671875 C-6.05984922 0.42269077 -4.27711431 -0.11255564 0 0 Z M-18.5625 11.0625 C-19.18874268 11.47371094 -19.81498535 11.88492188 -20.46020508 12.30859375 C-22.31269811 13.53046599 -24.15743043 14.76322784 -26 16 C-26.91007812 16.60714844 -27.82015625 17.21429688 -28.7578125 17.83984375 C-42.0820771 26.94404384 -52.28332783 36.45571207 -60.5 50.375 C-61.04914063 51.27605469 -61.59828125 52.17710938 -62.1640625 53.10546875 C-62.67710937 53.96527344 -63.19015625 54.82507813 -63.71875 55.7109375 C-64.18216797 56.48743652 -64.64558594 57.26393555 -65.12304688 58.06396484 C-65.55713867 59.02230225 -65.55713867 59.02230225 -66 60 C-65.67 60.66 -65.34 61.32 -65 62 C-51.28641414 54.42152834 -38.23980213 47.00757482 -27 36 C-26.16726562 35.21753906 -25.33453125 34.43507813 -24.4765625 33.62890625 C-18.76236245 27.84644783 -9 15.56647888 -9 7 C-13.01522515 7 -15.33356558 8.91131348 -18.5625 11.0625 Z M41 35 C64.93065986 35.74783312 84.43190496 29.48381311 106.5 20.75 C107.60529053 20.31357178 108.71058105 19.87714355 109.84936523 19.42749023 C110.87876221 19.01313721 111.90815918 18.59878418 112.96875 18.171875 C113.89107422 17.8015918 114.81339844 17.43130859 115.76367188 17.04980469 C118.13557704 16.0908297 118.13557704 16.0908297 120 14 C115.05253981 13.6717325 110.10497268 13.37347146 105.15332031 13.11572266 C103.39053847 13.02098812 101.62867091 12.90937601 99.8671875 12.79296875 C77.94925653 11.9499714 57.60016013 21.31650352 41 35 Z M46 65 C46 65.99 46 66.98 46 68 C54.09355512 73.38948717 60.53984478 73.37676611 70 72 C62.69280162 66.17759764 55.22931781 64.29307353 46 65 Z M-141 72 C-153.48385923 92.83442006 -153.48385923 92.83442006 -158 116 C-157.04460061 118.17227174 -157.04460061 118.17227174 -156 120 C-145.8328331 101.84347548 -145.8328331 101.84347548 -140 82 C-139.83113281 81.13632813 -139.66226563 80.27265625 -139.48828125 79.3828125 C-139.05273377 77.0335513 -139.05273377 77.0335513 -139 74 C-139.66 73.34 -140.32 72.68 -141 72 Z M35 95 C36.85002478 99.02551687 39.14392317 101.77413451 43 104 C49.04914276 106.04553887 49.04914276 106.04553887 55 105 C48.75826183 99.3747298 43.24525907 96.61822842 35 95 Z M-185 108 C-186.4636236 119.16012998 -187.02719979 128.59699898 -182 139 C-181.34 139.66 -180.68 140.32 -180 141 C-176.86772246 137.86772246 -177.93372688 128.60387968 -177.7890625 124.37109375 C-177.80999919 117.68880045 -179.77318903 113.2314443 -184 108 C-184.33 108 -184.66 108 -185 108 Z M-105.6875 127.25 C-109.80616079 131.1083417 -113.97624816 134.86194405 -118.31103516 138.47607422 C-125.35662081 144.35492503 -131.60829846 150.65705141 -137.68310547 157.52734375 C-138.84947268 158.83166838 -140.04941552 160.1057966 -141.25390625 161.375 C-153.47667132 174.34058505 -163.36793637 189.27828561 -171.84960938 204.89257812 C-172.85795395 206.73978321 -173.90267123 208.56703725 -174.953125 210.390625 C-191.65896147 240.94274035 -195.18870385 279.74851374 -195.1328125 313.9609375 C-195.13348859 315.44634009 -195.13446114 316.93174256 -195.13571167 318.41714478 C-195.13717154 321.50125197 -195.13508805 324.58532985 -195.13037109 327.66943359 C-195.1246445 331.60298654 -195.12798212 335.53647167 -195.13394356 339.4700222 C-195.13757002 342.5259349 -195.13640153 345.5818317 -195.13381577 348.6377449 C-195.13315383 350.08808017 -195.13394897 351.53841694 -195.13629532 352.98875046 C-195.1452558 360.07375852 -195.12836499 366.99562108 -194 374 C-193.67 374 -193.34 374 -193 374 C-192.74347656 372.73929688 -192.48695313 371.47859375 -192.22265625 370.1796875 C-188.51611362 352.90583163 -182.06368727 337.21908725 -174.53515625 321.28125 C-172.59230338 317.12858737 -170.73190465 312.94165447 -168.875 308.75 C-168.55007568 308.0168457 -168.22515137 307.28369141 -167.89038086 306.52832031 C-167.24802864 305.07808979 -166.61190455 303.62508518 -165.98193359 302.16943359 C-165.32947104 300.72791638 -164.6287527 299.30725352 -163.88134766 297.91259766 C-160.47414481 291.28722897 -160.4607128 285.22582522 -160.625 277.875 C-160.63789063 276.67375488 -160.65078125 275.47250977 -160.6640625 274.23486328 C-160.79212595 266.83819832 -161.38721963 259.7603828 -162.5390625 252.45703125 C-164.06187739 241.03591957 -163.17625011 230.71819483 -159.97265625 219.68359375 C-158.93442214 215.75164689 -158.42391638 212.03836132 -158 208 C-153.04015817 212.34874384 -151.42591455 218.83661644 -150.5703125 225.19140625 C-150.21952303 233.76511364 -152.07534126 242.24030748 -157.65234375 249.00390625 C-159.41577351 251.61582685 -159.33576069 253.24473467 -159.25 256.375 C-159.22292969 257.42558594 -159.19585937 258.47617187 -159.16796875 259.55859375 C-158.72011306 270.85407104 -158.72011306 270.85407104 -157 282 C-151.22780008 274.67442836 -147.85901223 265.63210894 -144.1875 257.125 C-143.75228027 256.11671143 -143.31706055 255.10842285 -142.86865234 254.06958008 C-141.57153479 251.04954275 -140.28302096 248.02605063 -139 245 C-138.65565918 244.18805176 -138.31131836 243.37610352 -137.95654297 242.53955078 C-128.84592007 220.85839888 -120.74122699 198.45211055 -114.66308594 175.72998047 C-111.64703199 164.47383258 -108.17674498 153.36106074 -104.73022461 142.23095703 C-104.4986969 141.48073776 -104.26716919 140.73051849 -104.02862549 139.95756531 C-103.59610746 138.55672494 -103.16173391 137.15645539 -102.72503662 135.75691223 C-101.31877374 131.20295638 -100.12355049 126.62961986 -99 122 C-101.33870496 122 -103.97872129 125.63753921 -105.6875 127.25 Z M-77.640625 140.6015625 C-84.67330196 147.75067451 -87.0196823 155.16301889 -88 165 C-80.28220086 162.22641594 -74.5942912 156.82755121 -70.83203125 149.5546875 C-69.2785128 144.78472945 -69.62320839 139.9485298 -70 135 C-72.71346885 135 -75.7614277 138.89592164 -77.640625 140.6015625 Z M-29.875 146.625 C-31.06234741 147.03431763 -31.06234741 147.03431763 -32.27368164 147.4519043 C-43.16709029 151.33945247 -51.21800737 157.58049777 -60 165 C-60.84949219 165.60585937 -61.69898438 166.21171875 -62.57421875 166.8359375 C-65.66445784 169.59276915 -67.0969839 172.33493196 -69 176 C-64.87176084 175.26717648 -60.74820589 174.51059138 -56.625 173.75 C-55.46871094 173.54503906 -54.31242188 173.34007812 -53.12109375 173.12890625 C-42.41930111 171.13365677 -33.80752604 168.93190174 -26.3125 160.75 C-25.4913269 159.88991333 -25.4913269 159.88991333 -24.65356445 159.01245117 C-23.08398376 157.3576507 -21.53914266 155.68308004 -20 154 C-19.21367187 153.15566406 -18.42734375 152.31132812 -17.6171875 151.44140625 C-14.22833445 148.19066919 -14.22833445 148.19066919 -13 144 C-19.20498714 143.70452442 -24.03165763 144.5804247 -29.875 146.625 Z M-157 219 C-159.69430667 228.47818596 -161.67886067 237.04337678 -161 247 C-155.99543609 242.59715785 -153.36393018 235.72947632 -152.5 229.25 C-153.09686328 225.3703887 -154.27674072 222.51832103 -156 219 C-156.33 219 -156.66 219 -157 219 Z M-216 220 C-217.51874539 231.01090406 -218.31686827 241.56756835 -214 252 C-211.3412329 248.01184934 -211.32162936 244.69728455 -211 240 C-210.93425781 239.27296875 -210.86851562 238.5459375 -210.80078125 237.796875 C-210.46065848 231.27590056 -212.50481169 225.95948993 -215 220 C-215.33 220 -215.66 220 -216 220 Z M-121 254 C-123.15786052 256.22268894 -125.12487196 258.53534307 -127 261 C-114.61827083 259.83486537 -107.92754965 257.28643949 -99.25 248.55078125 C-97.79081308 247.07245063 -97.79081308 247.07245063 -98 245 C-105.97399489 245 -114.85786476 248.97709829 -121 254 Z " fill="#9889B0" transform="translate(280,66)"/>
<path d="M0 0 C0.84363098 -0.00705963 1.68726196 -0.01411926 2.55645752 -0.02139282 C91.88193123 -0.59602023 177.50842556 27.62412053 244.37890625 88.203125 C245.23307129 88.97269531 245.23307129 88.97269531 246.10449219 89.7578125 C256.39707276 99.05357581 266.40946481 108.60631655 275.37890625 119.203125 C276.17554688 120.110625 276.9721875 121.018125 277.79296875 121.953125 C324.04781535 174.99314946 352.20010783 243.4436453 359.37890625 313.203125 C359.47316895 314.11835938 359.56743164 315.03359375 359.66455078 315.9765625 C367.95292398 408.26070344 339.20139231 500.38254849 279.88916016 571.41992188 C277.11161822 574.69945086 274.24717735 577.89411332 271.33984375 581.05859375 C269.55597891 583.00947383 267.83937831 585.00060548 266.12890625 587.015625 C262.87749688 590.74451407 259.43002702 594.26052963 255.94140625 597.765625 C255.41579102 598.29583252 254.89017578 598.82604004 254.34863281 599.37231445 C191.2639931 662.21491672 101.7902566 696.38154624 13.37890625 696.453125 C12.07181198 696.45463562 12.07181198 696.45463562 10.73831177 696.45617676 C-5.54490174 696.44355656 -21.47557579 695.44006747 -37.62109375 693.203125 C-38.63333008 693.06390625 -39.64556641 692.9246875 -40.68847656 692.78125 C-95.61182488 684.90118143 -149.24776199 662.42874474 -193.62109375 629.203125 C-194.15605469 628.80561035 -194.69101563 628.4080957 -195.2421875 627.99853516 C-219.03385652 610.27602391 -241.44898921 589.71084004 -259.62109375 566.203125 C-260.43465332 565.15777588 -260.43465332 565.15777588 -261.26464844 564.09130859 C-270.45643022 552.22990937 -278.95471106 540.10589616 -286.62109375 527.203125 C-287.04165039 526.49575195 -287.46220703 525.78837891 -287.89550781 525.05957031 C-319.14727912 471.88454535 -337.61123503 409.19234035 -335.62109375 347.203125 C-334.63109375 347.203125 -333.64109375 347.203125 -332.62109375 347.203125 C-332.58145508 347.98510254 -332.54181641 348.76708008 -332.50097656 349.57275391 C-327.47625083 445.0009015 -293.07853307 535.45102018 -221.49609375 601.015625 C-219.54692822 602.75511934 -217.58865031 604.48446041 -215.62109375 606.203125 C-214.64269531 607.069375 -213.66429687 607.935625 -212.65625 608.828125 C-188.63237242 629.81930434 -161.35988654 646.51699462 -132.62109375 660.203125 C-131.61006592 660.68579834 -131.61006592 660.68579834 -130.57861328 661.17822266 C-49.49238522 699.48322727 45.22054659 701.67141913 129.37890625 672.203125 C137.50787971 669.16550922 145.45704586 665.74045572 153.37890625 662.203125 C154.25289062 661.81962891 155.126875 661.43613281 156.02734375 661.04101562 C178.56333746 651.09161415 199.88247788 638.24478287 219.37890625 623.203125 C220.3225 622.47867188 221.26609375 621.75421875 222.23828125 621.0078125 C224.65158292 619.10945099 227.02077887 617.16951135 229.37890625 615.203125 C230.35601563 614.39875 231.333125 613.594375 232.33984375 612.765625 C250.25094485 597.91258384 267.12548649 581.64286385 281.37890625 563.203125 C281.83330078 562.61595703 282.28769531 562.02878906 282.75585938 561.42382812 C338.67265493 488.85723574 365.0404614 398.02613706 354.41796875 306.80078125 C351.60854798 285.1995192 346.88421868 263.99176177 340.37890625 243.203125 C339.97551025 241.91220947 339.97551025 241.91220947 339.56396484 240.59521484 C325.0606672 195.08058475 300.01645494 152.83839293 267.7109375 117.75390625 C265.74391597 115.60237349 263.83337496 113.42020527 261.94140625 111.203125 C255.03248576 103.26764322 247.40359244 95.99544867 239.37890625 89.203125 C238.47140625 88.40648437 237.56390625 87.60984375 236.62890625 86.7890625 C227.65710615 78.96605539 218.12816571 72.02123456 208.37890625 65.203125 C207.75290527 64.7611377 207.1269043 64.31915039 206.48193359 63.86376953 C158.61249048 30.21193208 101.4089893 10.80076694 43.37890625 5.203125 C42.46407471 5.10668701 41.54924316 5.01024902 40.60668945 4.91088867 C29.61372046 3.88834954 18.59465379 4.0935754 7.56640625 4.140625 C5.50586047 4.14565112 3.44531349 4.15021205 1.38476562 4.15429688 C-3.61721736 4.1652119 -8.61914212 4.18241496 -13.62109375 4.203125 C-13.62109375 3.213125 -13.62109375 2.223125 -13.62109375 1.203125 C-9.09589238 0.07872541 -4.6341891 0.02556931 0 0 Z " fill="#9889B0" transform="translate(448.62109375,100.796875)"/>
<path d="M0 0 C11.19401672 8.27049345 18.89478127 18.95073808 21.1796875 32.8359375 C22.72040361 47.38714516 20.3947745 61.23791792 11.48828125 73.125 C4.1801212 81.76074468 -5.09207875 88.19630255 -16.5390625 89.4921875 C-28.91184301 90.18894818 -38.93307139 87.48518394 -48.8046875 79.70703125 C-57.98238834 71.17737417 -63.44963583 58.91165157 -64.5390625 46.4921875 C-64.60351562 45.80125 -64.66796875 45.1103125 -64.734375 44.3984375 C-65.42995081 30.48692124 -60.58757474 18.03830511 -51.84765625 7.44140625 C-38.64614871 -6.86277942 -16.73635785 -9.93882174 0 0 Z M-45.23046875 9.59375 C-55.04149311 23.51114296 -56.65160854 39.8423636 -53.890625 56.375 C-51.09087369 66.30574183 -46.05983557 75.46529923 -37.5390625 81.4921875 C-38.0340625 80.3371875 -38.5290625 79.1821875 -39.0390625 77.9921875 C-41.60721575 70.23857649 -42.36802259 59.40629004 -38.9140625 51.8046875 C-35.73995588 46.79468645 -31.9872619 43.61766361 -26.1640625 42.3046875 C-23.92343746 41.88738988 -21.67840674 41.51515349 -19.4296875 41.14453125 C-13.88610067 40.03796256 -10.28358807 37.74192684 -6.5390625 33.4921875 C-2.08758893 26.59958326 -2.59053288 17.90136994 -3.97265625 10.01953125 C-5.83916112 4.00266151 -10.18241584 0.44465926 -15.5 -2.6484375 C-26.83063865 -7.42380245 -38.42668481 1.14008774 -45.23046875 9.59375 Z M-4.5390625 3.4921875 C-4.0440625 4.9771875 -4.0440625 4.9771875 -3.5390625 6.4921875 C-1.64184633 14.19103572 -0.79654908 24.8132519 -4.1640625 32.1796875 C-7.42654646 37.23486743 -10.14367363 39.92731271 -16.05078125 41.3203125 C-18.65834642 41.82711503 -21.25176774 42.23338898 -23.8828125 42.62109375 C-30.04580732 44.0894141 -34.00413519 47.31604394 -37.5390625 52.4921875 C-41.00840114 59.7553353 -40.61664585 68.4022317 -38.0390625 75.9296875 C-35.7603423 80.94450543 -32.29900885 83.84342885 -27.5390625 86.4921875 C-20.98307211 88.67751763 -15.5684492 87.33974179 -9.5390625 84.4921875 C1.51296563 78.50567226 6.45727112 68.45190342 10.7109375 57.1796875 C13.90950877 41.45337874 12.59972102 25.87019723 3.94140625 12.0703125 C1.42299481 8.5764151 -1.00872905 5.98999332 -4.5390625 3.4921875 Z " fill="#9889B0" transform="translate(522.5390625,469.5078125)"/>
<path d="M0 0 C2.64 0 5.28 0 8 0 C8.01458252 0.8470752 8.02916504 1.69415039 8.04418945 2.56689453 C8.10551177 5.73181934 8.17971352 8.89611504 8.26245117 12.06054688 C8.29555386 13.4259925 8.32363086 14.79157013 8.34643555 16.15722656 C8.38024991 18.12853224 8.43408286 20.09946191 8.48828125 22.0703125 C8.51446533 23.25383301 8.54064941 24.43735352 8.56762695 25.65673828 C9.19869724 30.53639754 10.78514001 33.85352616 14.359375 37.2265625 C16.95236485 38.96800835 19.35643513 40.20930672 22.25 41.375 C23.2915625 41.79652344 24.333125 42.21804688 25.40625 42.65234375 C28.02364478 43.63386679 30.6306928 44.56004882 33.28125 45.44140625 C34.02084961 45.69035645 34.76044922 45.93930664 35.52246094 46.19580078 C36.96380557 46.67572242 38.40963205 47.14247127 39.86035156 47.59326172 C45.86854945 49.58698158 48.4815894 51.86119205 54 56 C54.33 37.52 54.66 19.04 55 0 C57.64 0 60.28 0 63 0 C63 30.69 63 61.38 63 93 C60.36 93 57.72 93 55 93 C54.98598145 91.69180298 54.98598145 91.69180298 54.97167969 90.35717773 C54.92742849 87.09321831 54.86571326 83.83052787 54.79248047 80.56713867 C54.76441256 79.16003296 54.74312797 77.75277373 54.72900391 76.34545898 C54.83774094 65.4211819 54.83774094 65.4211819 50 56 C43.24423305 50.9387123 34.49853184 48.77504998 26.53295898 46.26074219 C20.29721943 44.23963561 13.72878746 41.72878746 9 37 C8.67 55.48 8.34 73.96 8 93 C5.36 93 2.72 93 0 93 C0 62.31 0 31.62 0 0 Z " fill="#9889B0" transform="translate(559,465)"/>
<path d="M0 0 C46.68973214 0 46.68973214 0 58 9 C64.04128885 15.49653872 65.43412563 20.75301837 65.3359375 29.5703125 C64.73710623 35.683962 62.52693142 40.40583315 58.23828125 44.80859375 C49.91779395 51.57637348 40.23870401 53.92178439 29.75 54.375 C19.50759403 54.89022503 19.50759403 54.89022503 11 60 C9.05727955 63.88544091 8.81958225 67.12461764 8.68359375 71.41796875 C8.64169922 72.67158203 8.59980469 73.92519531 8.55664062 75.21679688 C8.51732422 76.52712891 8.47800781 77.83746094 8.4375 79.1875 C8.39429008 80.52279978 8.350675 81.85808652 8.30664062 83.19335938 C8.20043498 86.46213297 8.09839003 89.73098333 8 93 C5.36 93 2.72 93 0 93 C0 62.31 0 31.62 0 0 Z M8 2 C8 20.81 8 39.62 8 59 C9.98 57.68 11.96 56.36 14 55 C18.49500641 53.25703833 22.43933587 52.88118921 27.25 52.625 C35.52460618 52.08162148 44.03803026 50.14263549 50 44 C55.31044201 37.02056193 56.85487015 30.62884561 56 22 C54.77914667 16.60153919 52.38374192 11.51892208 48 8 C34.05578712 0.33379084 26.08693582 2 8 2 Z " fill="#9889B0" transform="translate(568,352)"/>
<path d="M0 0 C2.64 0 5.28 0 8 0 C8.01458252 0.82201904 8.02916504 1.64403809 8.04418945 2.4909668 C8.11876333 6.22361323 8.21539512 9.95537459 8.3125 13.6875 C8.33505859 14.98107422 8.35761719 16.27464844 8.38085938 17.60742188 C8.41630859 18.85458984 8.45175781 20.10175781 8.48828125 21.38671875 C8.51446533 22.53358154 8.54064941 23.68044434 8.56762695 24.86206055 C9.1348883 28.97894933 10.38676692 31.72497633 13.68041992 34.328125 C19.20993009 37.06497523 24.1991421 37.67777889 30.3125 38 C43.72805879 39.04109296 52.72868636 41.64525699 62 52 C65.96916792 58.07049211 65.76618647 64.96501511 65 72 C63.2968656 78.24482614 59.38172913 82.55842322 54 86 C37.11070477 95.1822825 18.9374336 93 0 93 C0 62.31 0 31.62 0 0 Z M8 33 C8 52.14 8 71.28 8 91 C30.17543508 91.7891424 30.17543508 91.7891424 49.625 82.62109375 C54.5289363 77.26471095 56.64864207 70.52349603 56.33984375 63.359375 C55.23461181 55.68627049 52.19298581 50.42380459 46.29296875 45.47265625 C39.08557498 40.84371681 31.9943444 40.13084008 23.65039062 39.18359375 C17.56608447 38.42250872 12.50602896 37.50602896 8 33 Z " fill="#9889B0" transform="translate(462,352)"/>
<path d="M0 0 C4.7595288 4.00233103 7.40076496 7.42636888 8.1640625 13.734375 C8.33501613 21.10092226 8.08133076 26.72807019 2.84765625 32.359375 C2.17605469 32.92140625 1.50445312 33.4834375 0.8125 34.0625 C0.14347656 34.63484375 -0.52554688 35.2071875 -1.21484375 35.796875 C-3.15911285 37.24481437 -5.04935549 38.30817901 -7.25 39.3125 C-6.53714844 39.54324219 -5.82429688 39.77398437 -5.08984375 40.01171875 C2.32366331 42.53610271 8.90480214 44.88897256 13.125 51.8125 C16.33882425 58.73458301 16.74020187 65.62928017 14.5625 72.9375 C11.72838556 80.50380553 7.61486608 83.97432028 0.4140625 87.27734375 C-11.41635728 91.87420774 -26.24703847 92.18377346 -37.984375 87.13671875 C-41.57036277 85.37999931 -44.92577543 83.52864971 -48.25 81.3125 C-49.24 82.6325 -50.23 83.9525 -51.25 85.3125 C-51.25 78.3825 -51.25 71.4525 -51.25 64.3125 C-48.88425863 67.26967672 -46.66601573 70.11685418 -44.5 73.1875 C-38.71321422 80.84052419 -32.87882558 85.69064926 -23.25 87.3125 C-16.64904616 88.0324197 -10.13493444 87.60370407 -4.25 84.3125 C0.93544017 79.74060427 4.41287183 75.01653159 5.05078125 68.0078125 C5.07846775 59.57265765 4.94960942 54.22313374 -0.5 47.5625 C-7.293998 42.00377437 -14.75637734 41.39815102 -23.25 40.3125 C-22.92 39.6525 -22.59 38.9925 -22.25 38.3125 C-19.921875 37.78515625 -19.921875 37.78515625 -17 37.375 C-11.17195297 36.42134123 -11.17195297 36.42134123 -6.25 33.3125 C-2.01192258 26.19858433 -1.62066636 19.46183726 -2.25 11.3125 C-2.99338598 8.7038081 -3.96434669 6.72952821 -5.25 4.3125 C-5.745 2.8275 -5.745 2.8275 -6.25 1.3125 C-8.62625345 0.12858777 -8.62625345 0.12858777 -11.25 -0.6875 C-12.24 -1.0175 -13.23 -1.3475 -14.25 -1.6875 C-21.31143596 -2.46502273 -27.28451792 -1.68243475 -33.25 2.3125 C-39.30779956 7.68141622 -43.05142 13.94653933 -46.25 21.3125 C-46.91 21.3125 -47.57 21.3125 -48.25 21.3125 C-48.25 14.3825 -48.25 7.4525 -48.25 0.3125 C-47.59 0.3125 -46.93 0.3125 -46.25 0.3125 C-45.59 1.6325 -44.93 2.9525 -44.25 4.3125 C-43.70472656 3.91417969 -43.15945313 3.51585937 -42.59765625 3.10546875 C-29.20332743 -6.30490586 -14.70556977 -7.63558431 0 0 Z " fill="#9889B0" transform="translate(429.25,468.6875)"/>
<path d="M0 0 C17.16 0 34.32 0 52 0 C55 9 55 9 55 12 C54.34 12 53.68 12 53 12 C52.72285156 11.43410156 52.44570313 10.86820312 52.16015625 10.28515625 C51.61681641 9.18494141 51.61681641 9.18494141 51.0625 8.0625 C50.52302734 6.96615234 50.52302734 6.96615234 49.97265625 5.84765625 C49.13628173 4.03750973 49.13628173 4.03750973 48 3 C45.11768818 2.83977631 42.2560208 2.7403842 39.37109375 2.68359375 C38.22259949 2.65561707 38.22259949 2.65561707 37.05090332 2.6270752 C34.17989068 2.55857255 31.30868067 2.49855496 28.4375 2.4375 C22.023125 2.293125 15.60875 2.14875 9 2 C9.33 21.14 9.66 40.28 10 60 C11.98 56.7 13.96 53.4 16 50 C22.4590489 44.90553889 28.51880797 41.48598836 37 42 C37 42.66 37 43.32 37 44 C36.29875 44.15855469 35.5975 44.31710937 34.875 44.48046875 C27.44609 46.30741537 20.82009255 47.99911146 16.24609375 54.48828125 C11.18428525 63.30680546 9.72424822 71.48821769 9.375 81.5 C9.31699219 82.87671875 9.31699219 82.87671875 9.2578125 84.28125 C9.16450436 86.52064528 9.07871815 88.76005254 9 91 C14.90862048 90.93114471 20.81653184 90.84318803 26.72460938 90.73754883 C28.73429499 90.70430274 30.74407391 90.67626981 32.75390625 90.65356445 C35.64363347 90.62001278 38.53250593 90.56769663 41.421875 90.51171875 C42.76895538 90.50213387 42.76895538 90.50213387 44.14324951 90.49235535 C49.05317299 90.38315905 49.05317299 90.38315905 53.57421875 88.63671875 C55.66955338 86.23138941 55.39719526 84.4403992 55.25 81.3125 C55.19585937 79.82169922 55.19585937 79.82169922 55.140625 78.30078125 C55.09421875 77.54152344 55.0478125 76.78226563 55 76 C55.66 76 56.32 76 57 76 C58.35550385 78.7110077 58.16917207 80.91339169 58.1875 83.9375 C58.20167969 84.99839844 58.21585937 86.05929687 58.23046875 87.15234375 C58 90 58 90 56 93 C53.6335144 93.36076355 53.6335144 93.36076355 50.63232422 93.34057617 C49.49561279 93.34021362 48.35890137 93.33985107 47.18774414 93.33947754 C45.98883545 93.32412964 44.78992676 93.30878174 43.5546875 93.29296875 C42.45584229 93.28994751 41.35699707 93.28692627 40.22485352 93.28381348 C36.10814055 93.26808136 31.99156114 93.22619764 27.875 93.1875 C18.67625 93.125625 9.4775 93.06375 0 93 C0 62.31 0 31.62 0 0 Z " fill="#9889B0" transform="translate(307,465)"/>
<path d="M0 0 C1.79662015 1.24052665 1.79662015 1.24052665 4.69140625 0.98828125 C5.35140625 -0.00171875 6.01140625 -0.99171875 6.69140625 -2.01171875 C6.69140625 4.91828125 6.69140625 11.84828125 6.69140625 18.98828125 C5.06600121 16.82107454 3.45493206 14.6411728 1.9296875 12.40234375 C-3.31473407 4.80697458 -8.8430927 -2.07998384 -18.30859375 -4.01171875 C-26.71762179 -5.0526816 -34.25248101 -2.61091586 -40.99609375 2.48828125 C-51.24789524 12.20814964 -55.34715631 26.91243954 -55.74609375 40.67578125 C-55.24772307 54.08195244 -51.32685249 65.27023392 -42.2734375 75.1953125 C-35.14756671 81.69784668 -27.84197311 83.31310967 -18.46875 83.19921875 C-9.38445971 82.5928508 -1.05141956 78.9017123 5.3203125 72.30078125 C6.69140625 70.98828125 6.69140625 70.98828125 8.69140625 70.98828125 C7.1191841 76.92778715 2.78345943 80.05889034 -2.23046875 83.1875 C-12.45881292 88.69034917 -23.66261766 89.47286726 -34.80859375 86.48828125 C-48.32158365 81.92503615 -55.9883058 72.99364947 -62.23046875 60.67578125 C-67.19837533 48.29201413 -67.06887433 33.27747141 -62.578125 20.7890625 C-60.61707548 16.46268557 -58.20919279 12.73616054 -55.30859375 8.98828125 C-54.58671875 7.95703125 -53.86484375 6.92578125 -53.12109375 5.86328125 C-39.77491464 -9.49337997 -16.19929174 -11.46463445 0 0 Z " fill="#9889B0" transform="translate(284.30859375,471.01171875)"/>
<path d="M0 0 C2.97 0 5.94 0 9 0 C9.01458252 0.88260498 9.02916504 1.76520996 9.04418945 2.67456055 C9.10542067 5.96438643 9.1796033 9.2533993 9.26245117 12.54272461 C9.29560557 13.96351202 9.32366692 15.38442813 9.34643555 16.80541992 C9.38015847 18.8539082 9.43247745 20.9012272 9.48828125 22.94921875 C9.51446533 24.17987061 9.54064941 25.41052246 9.56762695 26.6784668 C10.1837934 31.4119194 11.87850531 33.96978976 15.3515625 37.16015625 C21.45761506 41.40197152 28.69847804 43.62075479 35.74414062 45.82739258 C42.87230163 48.06524112 49.61328929 50.61328929 55 56 C55.33 37.52 55.66 19.04 56 0 C58.64 0 61.28 0 64 0 C64 30.69 64 61.38 64 93 C61.36 93 58.72 93 56 93 C55.970271 91.88141602 55.970271 91.88141602 55.93994141 90.74023438 C55.84405589 87.32649812 55.73463559 83.91332121 55.625 80.5 C55.5940625 79.32695312 55.563125 78.15390625 55.53125 76.9453125 C55.4905306 65.57261536 55.4905306 65.57261536 50.375 55.875 C45.03573059 51.77043664 38.34437623 49.89076938 32.046875 47.71142578 C19.1690506 43.23552164 11.4335985 39.68136907 4 28 C3.45730469 27.15308594 2.91460937 26.30617188 2.35546875 25.43359375 C0.30668885 21.75523676 -0.12588146 18.63045655 -0.09765625 14.453125 C-0.09443359 13.60878906 -0.09121094 12.76445312 -0.08789062 11.89453125 C-0.07951172 11.02183594 -0.07113281 10.14914062 -0.0625 9.25 C-0.05798828 8.36183594 -0.05347656 7.47367187 -0.04882812 6.55859375 C-0.03707422 4.37236684 -0.01913966 2.18617472 0 0 Z " fill="#9889B0" transform="translate(225,352)"/>
<path d="M0 0 C0.99 0 1.98 0 3 0 C9.19983613 15.62282609 15.39680366 31.24678418 21.588974 46.87265015 C24.19837324 53.4570981 26.80988837 60.04069535 29.42607117 66.62245178 C30.65845832 69.72439031 31.8882573 72.82734882 33.11709595 75.93069458 C33.66225403 77.30574699 34.20861292 78.68032396 34.75619507 80.05441284 C35.49550819 81.91004437 36.23033335 83.76746219 36.96484375 85.625 C37.3630835 86.62789062 37.76132324 87.63078125 38.17163086 88.6640625 C39 91 39 91 39 93 C36.03 93 33.06 93 30 93 C28.14425856 88.33862655 26.29296109 83.67552275 24.44580078 79.01074219 C23.81649348 77.42334132 23.18596404 75.83642441 22.55419922 74.25 C21.64751319 71.97260967 20.74520402 69.69352799 19.84375 67.4140625 C19.55939087 66.70255035 19.27503174 65.99103821 18.98205566 65.25796509 C17 60.22774341 17 60.22774341 17 58 C15.24859857 58.45294865 13.49892656 58.91258748 11.75 59.375 C10.77546875 59.63023437 9.8009375 59.88546875 8.796875 60.1484375 C4.17434404 61.48746888 4.17434404 61.48746888 0.76171875 64.671875 C0.40722656 65.35765625 0.05273438 66.0434375 -0.3125 66.75 C-0.73273437 67.5440625 -1.15296875 68.338125 -1.5859375 69.15625 C-2.63660023 71.269185 -3.65815395 73.39664594 -4.6640625 75.53125 C-4.95756592 76.14516602 -5.25106934 76.75908203 -5.5534668 77.39160156 C-6.402473 79.17636688 -7.2309951 80.97083274 -8.05859375 82.765625 C-10.84815865 87.41302889 -14.01598373 90.14970731 -19.0625 92.3125 C-24.72077247 93.30045234 -30.27435662 93.12901876 -36 93 C-30.95288141 78.020258 -25.04061819 63.40374668 -19.125 48.75 C-17.20848373 43.99577615 -15.29432629 39.24061241 -13.3828125 34.484375 C-12.92336243 33.34133911 -12.46391235 32.19830322 -11.99053955 31.02062988 C-7.86630274 20.72820834 -3.89838022 10.37980505 0 0 Z M-2 12 C-9.44792446 29.95538066 -16.58655364 48.03013818 -23.6875 66.125 C-24.14636597 67.29269928 -24.60523193 68.46039856 -25.07800293 69.66348267 C-26.39122998 73.00665041 -27.70194469 76.35079066 -29.01171875 79.6953125 C-29.41434433 80.72018265 -29.81696991 81.7450528 -30.23179626 82.80097961 C-30.5970491 83.7356456 -30.96230194 84.67031158 -31.33862305 85.63330078 C-31.66074265 86.45565216 -31.98286224 87.27800354 -32.31474304 88.12527466 C-33.05721806 89.82386394 -33.05721806 89.82386394 -33 91 C-25.37612121 91.47649242 -19.4755395 90.6672745 -13.3125 85.9375 C-9.5847393 81.20223641 -7.20341108 75.83397148 -4.85546875 70.3046875 C-2.09390627 64.11657091 0.62812614 60.58716155 7 58 C9.97787091 57.12605963 12.93420923 56.47548144 16 56 C10.56880328 41.24181144 4.77462195 26.62616474 -1 12 C-1.33 12 -1.66 12 -2 12 Z " fill="#9889B0" transform="translate(670,465)"/>
<path d="M0 0 C17.16 0 34.32 0 52 0 C54.25 7.875 54.25 7.875 54 12 C53.34 12 52.68 12 52 12 C51.79503906 11.43410156 51.59007812 10.86820312 51.37890625 10.28515625 C51.10949219 9.55167969 50.84007812 8.81820313 50.5625 8.0625 C50.29566406 7.33160156 50.02882813 6.60070312 49.75390625 5.84765625 C49.14613052 4.01694322 49.14613052 4.01694322 48 3 C45.04491461 2.83971449 42.10998587 2.74035139 39.15234375 2.68359375 C37.97436218 2.65561707 37.97436218 2.65561707 36.77258301 2.6270752 C33.82767417 2.55856915 30.88257277 2.49855374 27.9375 2.4375 C18.0684375 2.2209375 18.0684375 2.2209375 8 2 C8.33 21.14 8.66 40.28 9 60 C11.31 56.37 13.62 52.74 16 49 C22.37099767 43.52317744 27.66084827 41.66643393 36 42 C36 42.66 36 43.32 36 44 C34.83984375 44.20302734 34.83984375 44.20302734 33.65625 44.41015625 C26.12854965 45.96600521 20.90919585 47.94038935 16 54 C10.08116016 63.02206789 9.02190587 72.32901669 8.453125 82.83984375 C8.40881348 83.62613159 8.36450195 84.41241943 8.31884766 85.22253418 C8.21060402 87.14824689 8.10503161 89.07410943 8 91 C13.90833871 90.88169628 19.81651111 90.75744375 25.72460938 90.62768555 C27.73434043 90.58438356 29.74410715 90.54270512 31.75390625 90.50268555 C34.64333848 90.44486835 37.53259198 90.38120676 40.421875 90.31640625 C41.31992859 90.29969376 42.21798218 90.28298126 43.14324951 90.26576233 C43.98381897 90.24581711 44.82438843 90.22587189 45.69042969 90.20532227 C46.79629425 90.18200584 46.79629425 90.18200584 47.92449951 90.15821838 C50.04711286 89.99640852 51.95413256 89.57589852 54 89 C55.00392976 82.474566 55.00392976 82.474566 54 76 C54.66 75.67 55.32 75.34 56 75 C58.1455944 79.2911888 58.60714546 83.2856941 58 88 C57.34 89.65 56.68 91.3 56 93 C37.52 93 19.04 93 0 93 C0 62.31 0 31.62 0 0 Z " fill="#9889B0" transform="translate(647,352)"/>
<path d="M0 0 C17.16 0 34.32 0 52 0 C54 8 54 8 54 12 C53.34 12 52.68 12 52 12 C51.80664062 11.43410156 51.61328125 10.86820312 51.4140625 10.28515625 C51.02347656 9.18494141 51.02347656 9.18494141 50.625 8.0625 C50.36976563 7.33160156 50.11453125 6.60070312 49.8515625 5.84765625 C49.14728587 3.81317884 49.14728587 3.81317884 47 3 C44.08534925 2.84280997 41.1904253 2.74136847 38.2734375 2.68359375 C37.50878174 2.66494263 36.74412598 2.6462915 35.95629883 2.6270752 C33.09598503 2.55870285 30.23547835 2.49860181 27.375 2.4375 C20.98125 2.293125 14.5875 2.14875 8 2 C8.33 21.14 8.66 40.28 9 60 C10.98 56.7 12.96 53.4 15 50 C21.74860443 44.09497112 26.88032605 41.63521304 36 42 C36 42.66 36 43.32 36 44 C35.21496094 44.15855469 34.42992187 44.31710937 33.62109375 44.48046875 C24.3391512 46.41573008 24.3391512 46.41573008 17 52 C11.03514822 61.60465693 8.78550522 70.86504577 8.375 82 C8.31699219 83.30517578 8.31699219 83.30517578 8.2578125 84.63671875 C8.16459113 86.75750486 8.08125864 88.87872185 8 91 C13.74790317 90.9310602 19.49508328 90.84306222 25.24243164 90.73754883 C27.19677702 90.70433646 29.15121747 90.67629305 31.10571289 90.65356445 C33.91854282 90.61995067 36.73050447 90.56763146 39.54296875 90.51171875 C40.84949654 90.50213387 40.84949654 90.50213387 42.18241882 90.49235535 C46.88126781 90.37899422 50.24138069 90.14643589 54 87 C55.31868187 82.76137969 54.92077194 79.29693572 54 75 C54.66 75 55.32 75 56 75 C58.4529646 80.48309734 58.02750561 85.22936245 57 91 C56.67 91.66 56.34 92.32 56 93 C37.52 93 19.04 93 0 93 C0 62.31 0 31.62 0 0 Z " fill="#9889B0" transform="translate(308,352)"/>
<path d="M0 0 C24.42 0 48.84 0 74 0 C76.25 7.875 76.25 7.875 76 12 C75.34 12 74.68 12 74 12 C73.71125 10.88625 73.4225 9.7725 73.125 8.625 C72.30758671 4.99708908 72.30758671 4.99708908 70 3 C60.43 2.67 50.86 2.34 41 2 C41 32.03 41 62.06 41 93 C38.36 93 35.72 93 33 93 C33 62.97 33 32.94 33 2 C15.97749203 0.50226234 15.97749203 0.50226234 2 6 C0.79950593 9.10007201 0.79950593 9.10007201 0 12 C-0.66 12 -1.32 12 -2 12 C-1.85831863 10.56208484 -1.71148957 9.1246763 -1.5625 7.6875 C-1.48128906 6.88699219 -1.40007812 6.08648437 -1.31640625 5.26171875 C-1 3 -1 3 0 0 Z " fill="#9889B0" transform="translate(374,352)"/>
<path d="M0 0 C2.64 0 5.28 0 8 0 C8 30.69 8 61.38 8 93 C5.36 93 2.72 93 0 93 C0 62.31 0 31.62 0 0 Z " fill="#9889B0" transform="translate(541,352)"/>
</svg>
