<?xml version="1.0" encoding="UTF-8"?>
<!DOCTYPE svg PUBLIC "-//W3C//DTD SVG 1.1//EN" "http://www.w3.org/Graphics/SVG/1.1/DTD/svg11.dtd">
<svg xmlns="http://www.w3.org/2000/svg" color="white" version="1.1" width="897px" height="891px" style="shape-rendering:geometricPrecision; text-rendering:geometricPrecision; image-rendering:optimizeQuality; fill-rule:evenodd; clip-rule:evenodd" xmlns:xlink="http://www.w3.org/1999/xlink">
<g><path style="opacity:0.842" fill="#9789af" d="M 274.5,65.5 C 276.199,65.3398 277.866,65.5065 279.5,66C 274.365,73.765 269.865,81.9316 266,90.5C 258.078,101.757 248.245,110.923 236.5,118C 224.002,123.655 212.836,131.155 203,140.5C 196.149,151.404 191.483,163.07 189,175.5C 199.398,167.383 210.231,159.883 221.5,153C 246.833,139 272.167,125 297.5,111C 312.664,100.581 328.331,90.9145 344.5,82C 365.478,75.1684 386.812,73.6684 408.5,77.5C 410.071,76.6906 411.738,76.3573 413.5,76.5C 413.67,77.8221 413.337,78.9887 412.5,80C 392.731,87.5901 372.731,94.5901 352.5,101C 340.184,103.133 327.851,104.133 315.5,104C 307.234,108.604 299.234,113.604 291.5,119C 282.167,123.667 272.833,128.333 263.5,133C 264.416,133.374 265.25,133.874 266,134.5C 277.084,133.318 288.25,132.484 299.5,132C 309.656,130.419 319.823,128.919 330,127.5C 339.604,129.258 348.771,132.424 357.5,137C 358.552,138.716 357.886,139.716 355.5,140C 343.319,143.646 332.319,141.646 322.5,134C 320.634,133.015 318.634,132.515 316.5,132.5C 304.551,134.177 292.551,135.344 280.5,136C 294.433,148.303 310.433,156.969 328.5,162C 332.548,165.716 336.882,169.05 341.5,172C 342.337,173.011 342.67,174.178 342.5,175.5C 334.588,175.055 326.921,173.555 319.5,171C 314.799,166.634 310.466,161.967 306.5,157C 295.468,151.822 285.468,145.155 276.5,137C 270.167,136.333 263.833,136.333 257.5,137C 234.663,148.578 212.996,161.911 192.5,177C 190,179.5 187.5,182 185,184.5C 177.223,207.944 170.223,231.61 164,255.5C 161.128,263.95 157.961,272.284 154.5,280.5C 155.002,281.521 155.668,281.688 156.5,281C 159.887,277.947 163.553,275.28 167.5,273C 169.709,271.127 171.542,268.96 173,266.5C 177.155,256.857 181.822,247.523 187,238.5C 187.729,229.517 189.729,220.851 193,212.5C 198.45,204.848 204.95,198.182 212.5,192.5C 216.604,211.956 209.771,225.956 192,234.5C 189.779,240.61 186.779,246.277 183,251.5C 181.033,255.401 179.7,259.401 179,263.5C 184.258,259.453 189.425,255.287 194.5,251C 205.177,239.657 216.51,228.99 228.5,219C 242.63,210.465 257.964,205.632 274.5,204.5C 274.649,205.552 274.483,206.552 274,207.5C 266.569,216.934 258.402,225.768 249.5,234C 245.952,235.941 242.286,237.607 238.5,239C 228.151,240.907 217.817,242.907 207.5,245C 189.379,258.786 171.545,272.953 154,287.5C 145.814,305.048 137.814,322.715 130,340.5C 129.333,341.5 129.333,342.5 130,343.5C 140.839,333.626 151.339,323.459 161.5,313C 170.658,310.628 179.658,307.795 188.5,304.5C 189.72,304.887 190.387,305.72 190.5,307C 185.189,313.645 179.189,319.645 172.5,325C 165.103,327.776 157.436,329.443 149.5,330C 140.75,337.747 132.25,345.914 124,354.5C 119.492,361.513 115.492,368.847 112,376.5C 105.327,393.177 98.6606,409.843 92,426.5C 88.0966,445.364 87.43,464.364 90,483.5C 103.751,599.574 158.251,690.741 253.5,757C 350.691,819.266 455.025,834.933 566.5,804C 676.182,768.648 754.682,698.481 802,593.5C 847.241,479.98 840.575,369.647 782,262.5C 716.833,155.448 621.666,93.9476 496.5,78C 475.159,76.2887 453.826,76.122 432.5,77.5C 432.5,75.5 432.5,73.5 432.5,71.5C 571.773,65.899 683.273,118.232 767,228.5C 835.685,329.611 853.685,439.278 821,557.5C 786.659,662.499 720.159,739.666 621.5,789C 533.666,828.958 443.333,835.625 350.5,809C 244.604,774.487 167.104,707.321 118,607.5C 98.9076,566.218 87.5743,522.885 84,477.5C 83.0567,449.83 82.0567,422.163 81,394.5C 77.8147,376.089 74.148,357.755 70,339.5C 67.2599,330.28 63.9266,321.28 60,312.5C 59.5671,300.154 59.9005,287.82 61,275.5C 62.1138,271.701 63.4471,271.701 65,275.5C 67.1971,281.091 69.1971,286.758 71,292.5C 71.5345,302.931 70.7011,313.264 68.5,323.5C 74.09,342.193 78.2566,361.193 81,380.5C 80.5322,337.829 89.8655,297.496 109,259.5C 110.987,251.251 111.987,242.918 112,234.5C 107.818,226.314 102.818,218.648 97,211.5C 90.4987,200.123 88.6654,187.956 91.5,175C 90.759,171.143 90.259,167.31 90,163.5C 91.9376,162.14 93.6043,162.473 95,164.5C 98.4005,169.577 101.401,174.911 104,180.5C 104.716,190.503 103.882,200.336 101.5,210C 105.542,216.585 109.709,223.085 114,229.5C 115.796,220.188 117.462,210.855 119,201.5C 119.124,191.829 119.124,182.162 119,172.5C 125.119,157.595 131.785,142.929 139,128.5C 140,127.167 141,127.167 142,128.5C 144.068,142.676 142.068,156.343 136,169.5C 131.413,177.004 127.08,184.671 123,192.5C 119.717,212.892 116.717,233.225 114,253.5C 133.175,226.321 155.842,202.321 182,181.5C 186.486,165.196 193.153,149.863 202,135.5C 210.33,124.848 217.663,113.514 224,101.5C 229.833,96.3333 235.667,91.1667 241.5,86C 252.9,79.6426 263.9,72.8092 274.5,65.5 Z M 270.5,72.5 C 263.827,90.6823 252.161,104.849 235.5,115C 228.021,118.994 220.688,123.161 213.5,127.5C 218.957,115.427 226.29,104.594 235.5,95C 246.249,85.9657 257.916,78.4657 270.5,72.5 Z M 370.5,78.5 C 380.17,78.8629 389.837,79.3629 399.5,80C 380.143,89.6745 359.81,96.3412 338.5,100C 332.5,100.667 326.5,100.667 320.5,100C 328.668,94.7484 337.001,89.7484 345.5,85C 353.838,82.3333 362.172,80.1666 370.5,78.5 Z M 325.5,130.5 C 334.17,130.111 342.17,132.278 349.5,137C 345.294,137.261 341.127,137.761 337,138.5C 332.832,137.332 328.998,135.499 325.5,133C 324.402,132.23 324.402,131.397 325.5,130.5 Z M 138.5,137.5 C 139.525,138.374 140.192,139.541 140.5,141C 137.871,157.091 132.038,171.925 123,185.5C 121,180.5 121,175.5 123,170.5C 127.648,159.206 132.815,148.206 138.5,137.5 Z M 314.5,160.5 C 318.779,162.093 323.112,163.593 327.5,165C 329.539,167.374 331.872,169.374 334.5,171C 325.438,171.97 318.771,168.47 314.5,160.5 Z M 94.5,173.5 C 98.0113,177.691 100.345,182.525 101.5,188C 101.114,194.326 100.281,200.493 99,206.5C 93.4612,196.092 91.9612,185.092 94.5,173.5 Z M 179.5,187.5 C 169.579,225.78 157.746,263.78 144,301.5C 137.186,316.952 130.186,332.286 123,347.5C 121.337,337.224 120.671,326.89 121,316.5C 131.714,302.426 132.214,288.092 122.5,273.5C 120.281,281.403 118.114,289.403 116,297.5C 115.26,308.248 115.926,318.915 118,329.5C 118.667,338.5 118.667,347.5 118,356.5C 109.983,374.53 101.983,392.53 94,410.5C 90.244,419.856 87.5774,429.523 86,439.5C 84.0586,409.509 84.0586,379.509 86,349.5C 88.3761,318.045 97.3761,288.711 113,261.5C 125.228,241.927 139.728,224.094 156.5,208C 164.659,201.672 172.325,194.839 179.5,187.5 Z M 208.5,200.5 C 210.648,214.194 205.314,224.194 192.5,230.5C 192.908,218.038 198.242,208.038 208.5,200.5 Z M 258.5,209.5 C 261.247,209.187 263.914,209.52 266.5,210.5C 260.384,218.118 253.717,225.285 246.5,232C 234.849,236.661 222.849,239.661 210.5,241C 216.486,233.349 223.486,226.683 231.5,221C 240.106,216.024 249.106,212.191 258.5,209.5 Z M 122.5,284.5 C 126.534,289.568 127.368,295.235 125,301.5C 123.254,305.327 121.254,308.993 119,312.5C 118.408,302.957 119.575,293.624 122.5,284.5 Z M 63.5,285.5 C 69.3418,295.616 70.1751,306.283 66,317.5C 64.2503,314.754 63.2503,311.754 63,308.5C 62.5956,300.826 62.7622,293.159 63.5,285.5 Z M 178.5,310.5 C 180.355,310.272 181.188,310.939 181,312.5C 173.795,322.021 164.295,326.521 152.5,326C 159.553,317.979 168.22,312.813 178.5,310.5 Z M 575.5,353.5 C 583.84,353.334 592.173,353.5 600.5,354C 620.133,358.432 626.966,370.265 621,389.5C 617.357,395.469 612.19,399.636 605.5,402C 597.407,402.827 589.407,404.16 581.5,406C 579.376,407.122 577.543,408.622 576,410.5C 575.5,391.503 575.333,372.503 575.5,353.5 Z M 469.5,384.5 C 471.574,387.05 474.241,388.883 477.5,390C 484.487,391.055 491.487,392.055 498.5,393C 516.909,400.66 521.743,413.493 513,431.5C 508.26,436.621 502.427,439.788 495.5,441C 486.875,442.201 478.208,442.701 469.5,442.5C 469.5,423.167 469.5,403.833 469.5,384.5 Z M 495.5,465.5 C 507.507,464.581 515.007,469.914 518,481.5C 521.09,500.74 512.923,510.573 493.5,511C 481.758,517.862 477.591,528.029 481,541.5C 486.487,551.575 485.487,552.575 478,544.5C 466.766,527.398 464.433,509.065 471,489.5C 475.799,477.866 483.965,469.866 495.5,465.5 Z M 517.5,472.5 C 528.653,482.753 534.32,495.586 534.5,511C 534.182,526.963 528.182,540.296 516.5,551C 507.634,557.608 498.634,557.942 489.5,552C 483.199,544.629 481.032,536.129 483,526.5C 484.119,521.761 486.619,517.928 490.5,515C 496.621,512.6 502.955,510.933 509.5,510C 517.529,505.11 521.196,497.943 520.5,488.5C 520.764,482.898 519.764,477.565 517.5,472.5 Z M 667.5,476.5 C 673.576,490.876 679.576,505.376 685.5,520C 678.754,520.458 672.921,522.958 668,527.5C 664.586,535.746 660.42,543.58 655.5,551C 649.692,554.701 643.359,556.034 636.5,555C 647.129,528.945 657.462,502.779 667.5,476.5 Z"/></g>
<g><path style="opacity:0.802" fill="#9789af" d="M 439.5,100.5 C 569.228,97.1183 672.062,147.452 748,251.5C 808.827,344.809 823.827,445.142 793,552.5C 755.641,662.526 682.474,737.692 573.5,778C 453.529,815.117 343.529,796.117 243.5,721C 158.464,650.081 114.797,558.914 112.5,447.5C 113.5,447.5 114.5,447.5 115.5,447.5C 118.187,562.375 164.52,654.875 254.5,725C 340.867,787.008 436.201,806.675 540.5,784C 639.434,758.367 713.934,701.201 764,612.5C 815.586,511.401 818.919,408.734 774,304.5C 729.192,211.695 657.692,149.529 559.5,118C 518.642,105.981 476.975,101.481 434.5,104.5C 434.5,103.5 434.5,102.5 434.5,101.5C 436.415,101.784 438.081,101.451 439.5,100.5 Z M 495.5,465.5 C 483.965,469.866 475.799,477.866 471,489.5C 464.433,509.065 466.766,527.398 478,544.5C 485.487,552.575 486.487,551.575 481,541.5C 477.591,528.029 481.758,517.862 493.5,511C 512.923,510.573 521.09,500.74 518,481.5C 515.007,469.914 507.507,464.581 495.5,465.5 Z M 517.5,472.5 C 519.764,477.565 520.764,482.898 520.5,488.5C 521.196,497.943 517.529,505.11 509.5,510C 502.955,510.933 496.621,512.6 490.5,515C 486.619,517.928 484.119,521.761 483,526.5C 481.032,536.129 483.199,544.629 489.5,552C 498.634,557.942 507.634,557.608 516.5,551C 528.182,540.296 534.182,526.963 534.5,511C 534.32,495.586 528.653,482.753 517.5,472.5 Z M 667.5,476.5 C 657.462,502.779 647.129,528.945 636.5,555C 643.359,556.034 649.692,554.701 655.5,551C 660.42,543.58 664.586,535.746 668,527.5C 672.921,522.958 678.754,520.458 685.5,520C 679.576,505.376 673.576,490.876 667.5,476.5 Z"/></g>
<g><path style="opacity:0.905" fill="#9789af" d="M 224.5,351.5 C 227.5,351.5 230.5,351.5 233.5,351.5C 233.069,362.578 233.569,373.578 235,384.5C 237.989,388.491 241.822,391.324 246.5,393C 255.72,395.74 264.72,399.073 273.5,403C 276.333,404.5 278.5,406.667 280,409.5C 280.5,390.17 280.667,370.836 280.5,351.5C 283.167,351.5 285.833,351.5 288.5,351.5C 288.5,382.5 288.5,413.5 288.5,444.5C 285.833,444.5 283.167,444.5 280.5,444.5C 280.666,435.827 280.5,427.16 280,418.5C 279.986,412.641 277.486,408.141 272.5,405C 263.731,401.077 254.731,397.743 245.5,395C 241.069,393.371 237.236,390.871 234,387.5C 231.584,382.999 228.917,378.666 226,374.5C 224.644,366.905 224.144,359.238 224.5,351.5 Z"/></g>
<g><path style="opacity:0.886" fill="#9789af" d="M 307.5,351.5 C 324.833,351.5 342.167,351.5 359.5,351.5C 359.846,354.885 360.512,358.218 361.5,361.5C 361.167,362.167 360.833,362.833 360.5,363.5C 359.238,360.885 358.072,358.218 357,355.5C 356.25,354.874 355.416,354.374 354.5,354C 341.504,353.5 328.504,353.333 315.5,353.5C 315.333,373.836 315.5,394.169 316,414.5C 319.93,400.311 329.097,393.644 343.5,394.5C 334.422,395.284 327.256,399.284 322,406.5C 316.129,417.791 313.962,429.791 315.5,442.5C 330.239,442.95 344.905,442.45 359.5,441C 364.005,437.301 364.672,432.968 361.5,428C 361.833,427.5 362.167,427 362.5,426.5C 366.014,431.939 366.347,437.605 363.5,443.5C 344.845,444.5 326.179,444.833 307.5,444.5C 307.5,413.5 307.5,382.5 307.5,351.5 Z"/></g>
<g><path style="opacity:0.928" fill="#9789af" d="M 373.5,351.5 C 398.176,351.167 422.842,351.5 447.5,352.5C 449.033,356.129 449.367,359.796 448.5,363.5C 448.015,359.696 446.348,356.529 443.5,354C 433.839,353.5 424.172,353.334 414.5,353.5C 414.5,383.833 414.5,414.167 414.5,444.5C 411.833,444.5 409.167,444.5 406.5,444.5C 406.5,414.167 406.5,383.833 406.5,353.5C 397.161,353.334 387.827,353.5 378.5,354C 377.584,354.374 376.75,354.874 376,355.5C 374.928,358.218 373.762,360.885 372.5,363.5C 372.167,362.833 371.833,362.167 371.5,361.5C 372.297,358.18 372.964,354.846 373.5,351.5 Z"/></g>
<g><path style="opacity:0.925" fill="#9789af" d="M 461.5,351.5 C 464.167,351.5 466.833,351.5 469.5,351.5C 469.074,361.912 469.574,372.246 471,382.5C 473.778,385.807 477.278,387.974 481.5,389C 488.533,389.336 495.533,390.002 502.5,391C 524.073,396.647 530.906,409.814 523,430.5C 513.425,439.696 501.925,444.196 488.5,444C 479.506,444.5 470.506,444.666 461.5,444.5C 461.5,413.5 461.5,382.5 461.5,351.5 Z M 469.5,384.5 C 469.5,403.833 469.5,423.167 469.5,442.5C 478.208,442.701 486.875,442.201 495.5,441C 502.427,439.788 508.26,436.621 513,431.5C 521.743,413.493 516.909,400.66 498.5,393C 491.487,392.055 484.487,391.055 477.5,390C 474.241,388.883 471.574,387.05 469.5,384.5 Z"/></g>
<g><path style="opacity:0.984" fill="#9789af" d="M 540.5,351.5 C 543.167,351.5 545.833,351.5 548.5,351.5C 548.5,382.5 548.5,413.5 548.5,444.5C 545.833,444.5 543.167,444.5 540.5,444.5C 540.5,413.5 540.5,382.5 540.5,351.5 Z"/></g>
<g><path style="opacity:0.926" fill="#9789af" d="M 567.5,351.5 C 579.505,351.333 591.505,351.5 603.5,352C 614.504,353.081 623.337,357.915 630,366.5C 636.047,383.905 630.547,396.072 613.5,403C 605.625,404.926 597.625,405.926 589.5,406C 582.4,406.286 577.9,409.786 576,416.5C 575.5,425.827 575.334,435.161 575.5,444.5C 572.833,444.5 570.167,444.5 567.5,444.5C 567.5,413.5 567.5,382.5 567.5,351.5 Z M 575.5,353.5 C 575.333,372.503 575.5,391.503 576,410.5C 577.543,408.622 579.376,407.122 581.5,406C 589.407,404.16 597.407,402.827 605.5,402C 612.19,399.636 617.357,395.469 621,389.5C 626.966,370.265 620.133,358.432 600.5,354C 592.173,353.5 583.84,353.334 575.5,353.5 Z"/></g>
<g><path style="opacity:0.888" fill="#9789af" d="M 646.5,351.5 C 663.833,351.5 681.167,351.5 698.5,351.5C 699.084,354.67 699.75,357.837 700.5,361C 700.167,361.833 699.833,362.667 699.5,363.5C 698.488,359.975 696.821,356.808 694.5,354C 681.171,353.5 667.837,353.333 654.5,353.5C 654.333,373.836 654.5,394.169 655,414.5C 657.86,403.64 664.693,396.807 675.5,394C 677.902,393.186 680.235,393.353 682.5,394.5C 665.45,397.722 656.284,408.055 655,425.5C 654.501,431.157 654.334,436.824 654.5,442.5C 668.504,442.667 682.504,442.5 696.5,442C 702.791,439.079 704.124,434.579 700.5,428.5C 700.808,427.692 701.308,427.025 702,426.5C 705.074,432.088 705.241,437.755 702.5,443.5C 683.845,444.5 665.179,444.833 646.5,444.5C 646.5,413.5 646.5,382.5 646.5,351.5 Z"/></g>
<g><path style="opacity:0.88" fill="#9789af" d="M 254.5,463.5 C 266.566,462.276 277.399,465.276 287,472.5C 288.882,471.907 289.882,470.573 290,468.5C 290.667,475.5 290.667,482.5 290,489.5C 284.788,475.941 275.121,467.941 261,465.5C 244.304,468.191 233.971,477.857 230,494.5C 224.115,515.071 228.615,532.905 243.5,548C 260.653,558.041 276.319,556.041 290.5,542C 291.332,541.312 291.998,541.479 292.5,542.5C 286.237,551.576 277.571,556.743 266.5,558C 244.207,559.106 229.04,549.273 221,528.5C 213.911,503.963 220.411,484.13 240.5,469C 245.046,466.545 249.712,464.712 254.5,463.5 Z"/></g>
<g><path style="opacity:0.86" fill="#9789af" d="M 402.5,463.5 C 412.149,462.33 421.149,464.163 429.5,469C 436.135,475.496 438.302,483.329 436,492.5C 433.101,499.732 427.934,504.565 420.5,507C 442.711,512.922 449.211,526.422 440,547.5C 431.602,555.302 421.602,558.968 410,558.5C 398.955,558.93 389.289,555.597 381,548.5C 379.748,550.001 378.748,551.668 378,553.5C 377.333,546.5 377.333,539.5 378,532.5C 383.549,544.726 392.716,552.559 405.5,556C 419.642,558.35 429.142,552.85 434,539.5C 437.286,524.926 432.12,515.093 418.5,510C 414.181,509.24 409.848,508.573 405.5,508C 422.875,506.473 430.042,496.973 427,479.5C 424.723,470.439 418.89,465.772 409.5,465.5C 400.77,465.615 393.937,469.282 389,476.5C 386.5,480.833 384,485.167 381.5,489.5C 380.167,482.5 380.167,475.5 381.5,468.5C 382.427,470.113 383.261,471.779 384,473.5C 389.473,468.684 395.639,465.35 402.5,463.5 Z"/></g>
<g><path style="opacity:0.863" fill="#9789af" d="M 494.5,463.5 C 516.026,462.513 531.193,471.846 540,491.5C 547.586,514.191 542.753,533.691 525.5,550C 504.299,563.105 485.133,560.605 468,542.5C 454.066,521.494 454.066,500.494 468,479.5C 475.179,471.172 484.012,465.838 494.5,463.5 Z M 495.5,465.5 C 483.965,469.866 475.799,477.866 471,489.5C 464.433,509.065 466.766,527.398 478,544.5C 485.487,552.575 486.487,551.575 481,541.5C 477.591,528.029 481.758,517.862 493.5,511C 512.923,510.573 521.09,500.74 518,481.5C 515.007,469.914 507.507,464.581 495.5,465.5 Z M 517.5,472.5 C 519.764,477.565 520.764,482.898 520.5,488.5C 521.196,497.943 517.529,505.11 509.5,510C 502.955,510.933 496.621,512.6 490.5,515C 486.619,517.928 484.119,521.761 483,526.5C 481.032,536.129 483.199,544.629 489.5,552C 498.634,557.942 507.634,557.608 516.5,551C 528.182,540.296 534.182,526.963 534.5,511C 534.32,495.586 528.653,482.753 517.5,472.5 Z"/></g>
<g><path style="opacity:0.86" fill="#9789af" d="M 306.5,464.5 C 323.837,464.333 341.17,464.5 358.5,465C 360.245,468.776 360.912,472.609 360.5,476.5C 359.138,472.944 357.138,469.778 354.5,467C 341.504,466.5 328.504,466.333 315.5,466.5C 315.333,486.503 315.5,506.503 316,526.5C 320.774,513.527 329.941,507.193 343.5,507.5C 334.724,508.8 327.558,512.8 322,519.5C 316.063,530.764 313.897,542.764 315.5,555.5C 329.504,555.667 343.504,555.5 357.5,555C 359.286,554.215 360.786,553.049 362,551.5C 362.215,547.715 362.381,544.048 362.5,540.5C 364.042,542.879 364.709,545.546 364.5,548.5C 364.68,551.58 364.014,554.413 362.5,557C 343.836,557.5 325.17,557.667 306.5,557.5C 306.5,526.5 306.5,495.5 306.5,464.5 Z"/></g>
<g><path style="opacity:0.96" fill="#9789af" d="M 558.5,464.5 C 561.167,464.5 563.833,464.5 566.5,464.5C 566.334,474.172 566.5,483.839 567,493.5C 567.964,497.468 570.131,500.635 573.5,503C 582.855,507.452 592.522,511.119 602.5,514C 606.44,515.886 609.94,518.386 613,521.5C 613.5,502.503 613.667,483.503 613.5,464.5C 616.167,464.5 618.833,464.5 621.5,464.5C 621.5,495.5 621.5,526.5 621.5,557.5C 618.833,557.5 616.167,557.5 613.5,557.5C 613.666,547.494 613.5,537.494 613,527.5C 611.193,521.693 607.36,517.859 601.5,516C 591.542,513.094 581.876,509.428 572.5,505C 570,503.833 568.167,502 567,499.5C 566.5,518.83 566.333,538.164 566.5,557.5C 563.833,557.5 561.167,557.5 558.5,557.5C 558.5,526.5 558.5,495.5 558.5,464.5 Z"/></g>
<g><path style="opacity:0.837" fill="#9789af" d="M 669.5,464.5 C 671.124,464.36 672.29,465.027 673,466.5C 684.735,496.54 696.569,526.54 708.5,556.5C 705.572,557.484 702.572,557.817 699.5,557.5C 695.569,546.046 691.236,534.713 686.5,523.5C 680.842,522.54 675.675,523.873 671,527.5C 667.155,533.857 663.822,540.523 661,547.5C 657.583,552.794 652.75,555.961 646.5,557C 642.167,557.667 637.833,557.667 633.5,557C 645.926,526.317 657.926,495.484 669.5,464.5 Z M 667.5,476.5 C 657.462,502.779 647.129,528.945 636.5,555C 643.359,556.034 649.692,554.701 655.5,551C 660.42,543.58 664.586,535.746 668,527.5C 672.921,522.958 678.754,520.458 685.5,520C 679.576,505.376 673.576,490.876 667.5,476.5 Z"/></g>
</svg>
