<?xml version="1.0" standalone="no"?>
<!DOCTYPE svg PUBLIC "-//W3C//DTD SVG 20010904//EN"
 "http://www.w3.org/TR/2001/REC-SVG-20010904/DTD/svg10.dtd">
<svg version="1.0" xmlns="http://www.w3.org/2000/svg"
 width="512.000000pt" height="512.000000pt" viewBox="0 0 512.000000 512.000000"
 preserveAspectRatio="xMidYMid meet">

<g transform="translate(0.000000,512.000000) scale(0.100000,-0.100000)"
fill="#000000" stroke="none">
<path d="M837 5104 c-208 -38 -384 -131 -537 -284 -157 -157 -248 -331 -285
-547 -14 -78 -15 -295 -12 -1754 l2 -1664 22 -80 c58 -217 174 -400 343 -543
95 -79 280 -173 405 -204 l90 -23 1690 0 c1612 0 1694 1 1770 19 299 69 550
267 687 541 48 95 75 179 93 283 13 77 15 300 12 1753 l-2 1664 -22 80 c-101
376 -370 645 -748 748 l-80 22 -1675 1 c-1406 2 -1687 0 -1753 -12z m3478
-336 c112 -38 197 -91 279 -174 83 -82 136 -167 174 -279 l27 -80 0 -1675 0
-1675 -27 -80 c-38 -112 -91 -197 -174 -279 -82 -83 -167 -136 -279 -174 l-80
-27 -1675 0 -1675 0 -80 27 c-112 38 -197 91 -279 174 -83 82 -136 167 -174
279 l-27 80 0 1675 0 1675 27 80 c83 245 272 415 523 470 49 11 368 13 1710
12 l1650 -2 80 -27z"/>
<path d="M3776 4256 c-144 -61 -226 -184 -226 -341 0 -220 174 -379 396 -362
131 10 234 75 291 184 38 73 45 100 44 189 0 96 -29 169 -92 239 -73 79 -139
108 -259 112 -83 3 -102 1 -154 -21z m184 -311 c17 -21 8 -47 -22 -65 -21 -11
-32 -12 -45 -4 -22 14 -29 50 -13 70 16 18 64 18 80 -1z"/>
<path d="M2416 3860 c-308 -39 -559 -161 -777 -379 -192 -192 -304 -399 -360
-664 -31 -144 -31 -370 0 -514 56 -265 168 -472 360 -664 147 -147 299 -245
489 -313 264 -95 600 -95 864 0 371 134 668 431 802 802 95 264 95 600 0 864
-68 190 -166 342 -313 489 -191 191 -403 306 -660 359 -115 23 -305 33 -405
20z m386 -344 c177 -45 322 -128 454 -260 132 -131 214 -274 261 -456 35 -131
37 -333 5 -463 -46 -185 -129 -335 -262 -468 -134 -136 -275 -218 -460 -266
-131 -35 -333 -37 -463 -5 -185 46 -335 129 -468 262 -136 134 -218 275 -267
460 -21 81 -25 117 -25 240 0 123 4 159 25 240 105 396 428 683 830 740 98 14
264 3 370 -24z"/>
</g>
</svg>
